# xmcd
# 
# Track frame offsets:
#     150
#     27525
#     46027
#     66434
#     88203
#     108651
#     126464
#     145900
#     169012
#     188056
#     215677
# 
# Disc length: 3121
# 
# Revision: 3
# Processed by: cddbd v1.5.2PL0 Copyright (c) Steve Scherf et al.
# Submitted via: BonkEnc v1.0
# 
DISCID=a90c2f0b
DTITLE=Torun Eriksen - Glittercard
DYEAR=2004
DGENRE=Jazz
TTITLE0=Outside Inside
TTITLE1=Words
TTITLE2=Glittercard
TTITLE3=Fever Skin
TTITLE4=Worth Waiting For
TTITLE5=In Person
TTITLE6=From Day To Day
TTITLE7=Picking Up The Pieces
TTITLE8=I Love A Man
TTITLE9=Under The Rainbow
TTITLE10=About presence
EXTD=YEAR: 2004
EXTT0=
EXTT1=
EXTT2=
EXTT3=
EXTT4=
EXTT5=
EXTT6=
EXTT7=
EXTT8=
EXTT9=
EXTT10=
PLAYORDER=
